<?xml version="1.0" encoding="UTF-8" standalone="no"?>
<svg
   xmlns:dc="http://purl.org/dc/elements/1.1/"
   xmlns:cc="http://creativecommons.org/ns#"
   xmlns:rdf="http://www.w3.org/1999/02/22-rdf-syntax-ns#"
   xmlns:svg="http://www.w3.org/2000/svg"
   xmlns="http://www.w3.org/2000/svg"
   xmlns:xlink="http://www.w3.org/1999/xlink"
   xmlns:sodipodi="http://sodipodi.sourceforge.net/DTD/sodipodi-0.dtd"
   xmlns:inkscape="http://www.inkscape.org/namespaces/inkscape"
   version="1.0"
   height="821.85278"
   width="447.82684"
   id="svg2597"
   sodipodi:version="0.32"
   inkscape:version="0.47 r22583"
   sodipodi:docname="Viewpoint_hover.svg"
   inkscape:output_extension="org.inkscape.output.svg.inkscape"
   inkscape:export-filename="/home/user/Desktop/Viewpoint_hover.png"
   inkscape:export-xdpi="30.15"
   inkscape:export-ydpi="30.15">
  <metadata
     id="metadata2608">
    <rdf:RDF>
      <cc:Work
         rdf:about="">
        <dc:format>image/svg+xml</dc:format>
        <dc:type
           rdf:resource="http://purl.org/dc/dcmitype/StillImage" />
        <dc:title></dc:title>
      </cc:Work>
    </rdf:RDF>
  </metadata>
  <defs
     id="defs2606">
    <linearGradient
       id="linearGradient3631">
      <stop
         style="stop-color:#ffea01;stop-opacity:0.01315789;"
         offset="0"
         id="stop3633" />
      <stop
         style="stop-color:#ffea01;stop-opacity:0.67543858;"
         offset="1"
         id="stop3635" />
    </linearGradient>
    <inkscape:perspective
       sodipodi:type="inkscape:persp3d"
       inkscape:vp_x="0 : 400 : 1"
       inkscape:vp_y="0 : 1000 : 0"
       inkscape:vp_z="400 : 400 : 1"
       inkscape:persp3d-origin="200 : 266.66667 : 1"
       id="perspective2610" />
    <inkscape:perspective
       id="perspective3617"
       inkscape:persp3d-origin="0.5 : 0.33333333 : 1"
       inkscape:vp_z="1 : 0.5 : 1"
       inkscape:vp_y="0 : 1000 : 0"
       inkscape:vp_x="0 : 0.5 : 1"
       sodipodi:type="inkscape:persp3d" />
    <radialGradient
       inkscape:collect="always"
       xlink:href="#linearGradient3631"
       id="radialGradient3637"
       cx="240.69264"
       cy="844.36359"
       fx="240.69264"
       fy="844.36359"
       r="222.84591"
       gradientTransform="matrix(1,0,0,0.68918402,0,262.4417)"
       gradientUnits="userSpaceOnUse" />
  </defs>
  <sodipodi:namedview
     inkscape:window-height="950"
     inkscape:window-width="1280"
     inkscape:pageshadow="2"
     inkscape:pageopacity="0.0"
     guidetolerance="10.0"
     gridtolerance="10.0"
     objecttolerance="10.0"
     borderopacity="1.0"
     bordercolor="#666666"
     pagecolor="#ffffff"
     id="base"
     showgrid="false"
     inkscape:zoom="0.5775"
     inkscape:cx="-105.99239"
     inkscape:cy="343.56707"
     inkscape:window-x="0"
     inkscape:window-y="24"
     inkscape:current-layer="svg2597"
     inkscape:window-maximized="1" />
  <circle
     r="56"
     cx="188"
     cy="105"
     style="fill:#ff451c;fill-opacity:1;stroke:#000000;stroke-opacity:1"
     id="circle2599"
     sodipodi:cx="188"
     sodipodi:cy="105"
     sodipodi:rx="56"
     sodipodi:ry="56"
     transform="matrix(0.91317921,0,0,0.9164125,66.584245,-26.539705)" />
  <path
     style="fill:#ff451c;fill-opacity:1;stroke:#000000;stroke-opacity:1"
     d="m 236.96352,140.24737 c -7.47022,0.12042 -57.44912,0.29465 -60.75495,0.57275 -39.2935,3.30565 -32.96007,196.36408 -32.96007,223.94831 32.39068,12.82977 38.66916,-33.52172 44.20359,-162.70728 l 0.91317,168.20575 47.02873,0 5.73591,0 47.02873,0 0.91318,-168.20575 c 5.53442,129.18556 11.8129,175.53705 44.20358,162.70728 -1e-5,-27.58423 6.33344,-220.64266 -32.96006,-223.94831 -3.30585,-0.2781 -53.28475,-0.45233 -60.75496,-0.57275 -0.17079,-0.003 -0.84599,0.003 -0.97025,0 -0.0619,0.002 -0.57229,-0.002 -0.65635,0 0,0 -0.97025,0 -0.97025,0 z"
     id="path2601"
     sodipodi:nodetypes="csccccccccssscc" />
  <path
     sodipodi:type="arc"
     style="fill:url(#radialGradient3637);fill-opacity:1;stroke:#05e2d2;stroke-width:12.79139042;stroke-miterlimit:4;stroke-opacity:1;stroke-dasharray:none;stroke-dashoffset:0"
     id="path3607"
     sodipodi:cx="240.69264"
     sodipodi:cy="844.36359"
     sodipodi:rx="216.45021"
     sodipodi:ry="147.18614"
     d="m 457.14285,844.36359 a 216.45021,147.18614 0 1 1 -432.900418,0 216.45021,147.18614 0 1 1 432.900418,0 z"
     transform="matrix(0.79052048,0,0,0.77312799,46.030666,30.06313)" />
  <path
     sodipodi:type="arc"
     style="fill:#05e2d2;fill-opacity:1;stroke:#05e2d2;stroke-width:12.79139042;stroke-miterlimit:4;stroke-opacity:1;stroke-dasharray:none;stroke-dashoffset:0"
     id="path3607-0"
     sodipodi:cx="240.69264"
     sodipodi:cy="844.36359"
     sodipodi:rx="216.45021"
     sodipodi:ry="147.18614"
     d="m 457.14285,844.36359 a 216.45021,147.18614 0 1 1 -432.900418,0 216.45021,147.18614 0 1 1 432.900418,0 z"
     transform="matrix(0.07905205,0,0,0.0773128,218.08575,609.38652)" />
  <path
     style="fill:#ff451c;fill-opacity:1;stroke:#000000;stroke-opacity:1"
     d="M 188.17977,386.30412 170.03033,682.334 c 64.43803,-4.48195 64.52453,25.73095 64.52182,-227.32758 1.1512,-0.12378 2.48222,-0.34822 3.70979,-0.51548 1.23843,0.1682 2.57741,0.3914 3.73833,0.51548 -0.003,253.05853 0.0553,222.84563 64.49328,227.32758 l -18.1209,-296.02988 -43.54723,0.0286 -13.12695,0 -43.5187,-0.0286 z"
     id="path2603" />
</svg>
