<?xml version="1.0" encoding="UTF-8" standalone="no"?>
<svg
   xmlns:dc="http://purl.org/dc/elements/1.1/"
   xmlns:cc="http://creativecommons.org/ns#"
   xmlns:rdf="http://www.w3.org/1999/02/22-rdf-syntax-ns#"
   xmlns:svg="http://www.w3.org/2000/svg"
   xmlns="http://www.w3.org/2000/svg"
   xmlns:sodipodi="http://sodipodi.sourceforge.net/DTD/sodipodi-0.dtd"
   xmlns:inkscape="http://www.inkscape.org/namespaces/inkscape"
   version="1.0"
   height="821.85278"
   width="447.82684"
   id="svg2597"
   sodipodi:version="0.32"
   inkscape:version="0.46"
   sodipodi:docname="Sinnbild_Fußgänger.svg"
   inkscape:output_extension="org.inkscape.output.svg.inkscape">
  <metadata
     id="metadata2608">
    <rdf:RDF>
      <cc:Work
         rdf:about="">
        <dc:format>image/svg+xml</dc:format>
        <dc:type
           rdf:resource="http://purl.org/dc/dcmitype/StillImage" />
      </cc:Work>
    </rdf:RDF>
  </metadata>
  <defs
     id="defs2606">
    <inkscape:perspective
       sodipodi:type="inkscape:persp3d"
       inkscape:vp_x="0 : 400 : 1"
       inkscape:vp_y="0 : 1000 : 0"
       inkscape:vp_z="400 : 400 : 1"
       inkscape:persp3d-origin="200 : 266.66667 : 1"
       id="perspective2610" />
  </defs>
  <sodipodi:namedview
     inkscape:window-height="750"
     inkscape:window-width="1264"
     inkscape:pageshadow="2"
     inkscape:pageopacity="0.0"
     guidetolerance="10.0"
     gridtolerance="10.0"
     objecttolerance="10.0"
     borderopacity="1.0"
     bordercolor="#666666"
     pagecolor="#ffffff"
     id="base"
     showgrid="false"
     inkscape:zoom="0.28875"
     inkscape:cx="-105.99239"
     inkscape:cy="627.54975"
     inkscape:window-x="0"
     inkscape:window-y="14"
     inkscape:current-layer="svg2597" />
  <circle
     r="56"
     cx="188"
     cy="105"
     style="fill:#000000;stroke:none"
     id="circle2599"
     sodipodi:cx="188"
     sodipodi:cy="105"
     sodipodi:rx="56"
     sodipodi:ry="56"
     transform="translate(36.796873,3.9999996)" />
  <path
     style="fill:#000000;stroke:none"
     d="M 223.375,186 C 215.19455,186.13141 160.46389,186.32153 156.84375,186.625 C 113.81441,190.23216 120.75,400.89977 120.75,431 C 156.22023,445 163.09564,394.42071 169.15625,253.45192 L 170.15625,437 L 221.65625,437 L 227.9375,437 L 279.4375,437 L 280.4375,253.45192 C 286.49811,394.42071 293.37352,445 328.84375,431 C 328.84374,400.89977 335.77934,190.23216 292.75,186.625 C 289.12985,186.32153 234.39919,186.13141 226.21875,186 C 226.03172,185.997 225.29232,186.00297 225.15625,186 C 225.08844,186.00199 224.52955,185.99799 224.4375,186 C 224.4375,186 223.375,186 223.375,186 z"
     id="path2601"
     sodipodi:nodetypes="csccccccccssscc" />
  <path
     style="fill:#000000;stroke:none"
     d="M 169.95312,454.5 L 150.07812,777.53125 C 220.64261,772.64049 220.73734,805.60916 220.73437,529.46875 C 221.99502,529.33368 223.45258,529.08876 224.79687,528.90625 C 226.15304,529.08979 227.61932,529.33335 228.89062,529.46875 C 228.88765,805.60916 228.95113,772.64049 299.51562,777.53125 L 279.67187,454.5 L 231.98437,454.53125 L 217.60937,454.53125 L 169.95312,454.5 z"
     id="path2603" />
</svg>
